<?xml version="1.0" standalone="no"?>
<!DOCTYPE svg PUBLIC "-//W3C//DTD SVG 20010904//EN"
 "http://www.w3.org/TR/2001/REC-SVG-20010904/DTD/svg10.dtd">
<svg version="1.0" xmlns="http://www.w3.org/2000/svg"
 width="630.000000pt" height="630.000000pt" viewBox="0 0 630.000000 630.000000"
 preserveAspectRatio="xMidYMid meet">
<metadata>
Created by potrace 1.11, written by Peter Selinger 2001-2013
</metadata>
<g transform="translate(0.000000,630.000000) scale(0.100000,-0.100000)"
fill="#000000" stroke="none">
<path d="M420 3275 l0 -1425 2660 0 2660 0 0 1425 0 1425 -2660 0 -2660 0 0
-1425z m5220 0 l0 -1335 -2560 0 -2560 0 0 1335 0 1335 2560 0 2560 0 0 -1335z"/>
<path d="M570 3260 l0 -1270 2505 0 2505 0 0 1270 0 1270 -2505 0 -2505 0 0
-1270z m4920 5 l0 -1175 -2415 0 -2415 0 0 1175 0 1175 2415 0 2415 0 0 -1175z"/>
<path d="M1535 4100 c-89 -10 -185 -29 -185 -38 0 -4 -27 -18 -60 -31 -33 -13
-60 -28 -60 -33 0 -5 -10 -13 -22 -18 -60 -26 -168 -135 -168 -170 0 -5 -4
-10 -10 -10 -11 0 -50 -76 -50 -97 0 -7 -4 -13 -8 -13 -12 0 -28 -37 -42 -103
-7 -31 -16 -57 -20 -57 -4 0 -13 -58 -20 -129 -10 -101 -10 -159 -1 -263 7
-73 16 -135 20 -138 5 -3 12 -25 16 -50 9 -51 32 -122 43 -130 4 -3 16 -25 27
-50 24 -56 25 -57 123 -155 55 -56 92 -85 121 -95 22 -7 41 -17 41 -21 0 -11
95 -37 163 -45 31 -4 57 -11 57 -15 0 -5 68 -9 150 -9 83 0 150 4 150 9 0 4
28 11 63 14 35 3 96 13 135 22 l72 17 0 84 0 84 -32 0 c-48 0 -242 -33 -246
-42 -5 -12 -242 -10 -242 2 0 6 -8 10 -17 10 -33 0 -147 45 -173 68 -89 81
-123 121 -137 165 -3 9 -9 17 -13 17 -9 0 -35 78 -46 135 -4 22 -12 43 -18 47
-15 10 -15 396 0 406 6 4 15 23 18 42 12 60 38 140 46 140 4 0 14 14 21 32 17
41 123 150 169 173 19 10 37 21 40 24 16 22 151 51 234 51 61 -1 235 -33 245
-46 9 -14 74 -34 108 -34 28 0 32 5 53 60 12 33 26 60 31 60 4 0 9 10 11 23 2
17 -5 26 -36 40 -21 9 -44 17 -52 17 -8 0 -14 4 -14 8 0 13 -91 30 -215 42
-121 11 -165 11 -270 0z"/>
<path d="M4259 4101 c-88 -10 -179 -31 -179 -43 0 -4 -5 -8 -12 -8 -16 0 -98
-40 -120 -59 -10 -9 -32 -27 -49 -41 -17 -14 -37 -32 -45 -40 -52 -56 -73 -85
-90 -122 -10 -24 -22 -46 -26 -49 -10 -7 -48 -113 -48 -134 0 -8 -4 -15 -9
-15 -16 0 -34 -171 -35 -320 0 -144 20 -320 36 -320 4 0 8 -6 8 -13 0 -20 41
-141 50 -147 4 -3 17 -24 29 -47 12 -24 26 -43 31 -43 6 0 10 -5 10 -12 0 -16
102 -118 118 -118 6 0 12 -4 12 -10 0 -5 19 -19 43 -31 23 -12 44 -24 47 -28
10 -12 77 -31 152 -43 43 -7 78 -16 78 -20 0 -4 61 -8 135 -8 83 0 135 4 135
10 0 6 13 10 28 10 35 0 184 37 191 48 4 4 24 16 46 27 46 22 52 26 126 97 31
29 59 61 62 71 4 9 10 17 15 17 5 0 19 24 33 53 13 28 27 53 31 55 9 4 48 127
48 152 0 10 4 20 9 22 13 5 31 167 31 282 0 114 -18 276 -31 276 -5 0 -9 8 -9
17 0 22 -42 156 -51 163 -3 3 -16 25 -29 49 -12 24 -33 56 -46 70 -13 14 -27
34 -30 44 -3 9 -9 17 -12 17 -4 0 -21 12 -38 28 -67 60 -99 82 -143 99 -25 9
-49 21 -52 25 -19 28 -312 53 -450 39z m315 -196 c28 -8 52 -19 55 -23 4 -4
21 -15 40 -26 45 -25 101 -83 126 -129 11 -20 23 -37 26 -37 7 0 49 -124 49
-146 0 -7 4 -14 9 -16 5 -1 14 -60 20 -130 11 -137 -1 -370 -19 -376 -5 -2
-10 -11 -10 -20 0 -28 -42 -162 -51 -162 -5 0 -16 -14 -24 -31 -20 -39 -86
-109 -102 -109 -7 0 -16 -7 -20 -15 -9 -16 -110 -55 -142 -55 -11 0 -21 -5
-23 -12 -6 -16 -210 -16 -216 0 -2 7 -12 12 -23 12 -26 0 -124 35 -144 52 -51
41 -125 116 -125 125 0 7 -6 18 -12 25 -19 19 -46 81 -53 122 -4 20 -11 36
-15 36 -13 0 -30 161 -30 282 0 113 16 268 29 278 4 3 14 31 24 62 10 32 23
63 30 70 7 8 21 29 31 48 25 44 98 115 136 132 17 7 30 16 30 20 0 7 85 33
135 41 53 9 219 -2 269 -18z"/>
<path d="M2430 3275 l0 -815 460 0 460 0 0 90 0 90 -340 0 -340 0 0 295 0 295
325 0 325 0 0 76 c0 52 -4 80 -14 90 -12 11 -69 14 -325 14 l-311 0 0 250 0
250 340 0 340 0 0 90 0 90 -460 0 -460 0 0 -815z"/>
</g>
</svg>
